<svg width="149" height="41" viewBox="0 0 149 41" fill="none" xmlns="http://www.w3.org/2000/svg">
<path fill-rule="evenodd" clip-rule="evenodd" d="M77.1053 38.4425C83.4439 34.961 87.7401 28.2222 87.7401 20.4799C87.7401 9.16916 78.5709 0 67.2602 0C67.0433 0 66.8271 0.00337281 66.6118 0.0100689L69.6783 4.91424C77.2289 6.07765 83.0103 12.6036 83.0103 20.4799C83.0103 26.5312 79.5977 31.7854 74.592 34.423L77.1053 38.4425Z" fill="#6D6D6D"/>
<path d="M49.9968 18.5405H60.9699L63.9969 23.2703H49.9968V18.5405Z" fill="#00CC00"/>
<path fill-rule="evenodd" clip-rule="evenodd" d="M46.7803 20.5203C46.7803 11.197 53.0103 3.32877 61.5344 0.851562L64.1737 5.07249C56.9529 6.50715 51.51 12.8781 51.51 20.5203C51.51 29.2189 58.5616 36.2704 67.2602 36.2704C68.1931 36.2704 69.1072 36.1893 69.9956 36.0337L72.6525 40.2829C70.9344 40.7506 69.1264 41.0002 67.2602 41.0002C55.9494 41.0002 46.7803 31.831 46.7803 20.5203Z" fill="#00CC00"/>
<path fill-rule="evenodd" clip-rule="evenodd" d="M64.6589 18.5405L76.5324 37.5295L80.5427 35.0219L70.2372 18.5405H64.6589Z" fill="#6D6D6D"/>
<path fill-rule="evenodd" clip-rule="evenodd" d="M67.6126 23.2706H71.3751C75.2411 23.2706 78.3752 20.1366 78.3752 16.2706C78.3752 12.4045 75.2411 9.27051 71.3751 9.27051H58.8586L61.8161 14.0003H71.3751C72.6289 14.0003 73.6454 15.0167 73.6454 16.2706C73.6454 17.5244 72.6289 18.5409 71.3751 18.5409H64.6552L67.6126 23.2706Z" fill="#6D6D6D"/>
<path d="M9.87323 19.1113C9.87323 18.6976 9.81028 18.302 9.6844 17.9243C9.57649 17.5467 9.39665 17.2139 9.14488 16.9262C8.8931 16.6385 8.56939 16.4137 8.17374 16.2518C7.79607 16.072 7.34647 15.982 6.82494 15.982C5.8538 15.982 5.02653 16.2788 4.34314 16.8723C3.67773 17.4477 3.30906 18.1941 3.23712 19.1113H9.87323ZM13.1104 20.568C13.1104 20.7118 13.1104 20.8557 13.1104 20.9996C13.1104 21.1435 13.1014 21.2873 13.0834 21.4312H3.23712C3.27309 21.8988 3.38999 22.3304 3.58781 22.7261C3.80362 23.1037 4.08237 23.4364 4.42407 23.7242C4.76577 23.9939 5.15242 24.2097 5.58404 24.3716C6.01565 24.5334 6.46526 24.6144 6.93284 24.6144C7.74212 24.6144 8.42551 24.4705 8.98302 24.1828C9.54052 23.877 9.99912 23.4634 10.3588 22.9419L12.5169 24.6683C11.24 26.3948 9.38766 27.258 6.95982 27.258C5.95271 27.258 5.02653 27.1052 4.18129 26.7994C3.33604 26.4757 2.59869 26.0261 1.96925 25.4506C1.35779 24.8751 0.872225 24.1738 0.512545 23.3465C0.170848 22.5012 0 21.5481 0 20.487C0 19.444 0.170848 18.4998 0.512545 17.6546C0.872225 16.7913 1.35779 16.063 1.96925 15.4695C2.58071 14.858 3.30007 14.3905 4.12733 14.0667C4.97258 13.725 5.88078 13.5542 6.85191 13.5542C7.75111 13.5542 8.57838 13.7071 9.33371 14.0128C10.107 14.3005 10.7724 14.7411 11.3299 15.3346C11.8874 15.9101 12.3191 16.6385 12.6248 17.5197C12.9485 18.3829 13.1104 19.399 13.1104 20.568Z" fill="#00CC00"/>
<path d="M14.3032 13.9319H17.891L21.5058 23.3465H21.5598L24.7699 13.9319H28.1419L22.0183 29.6589C21.7846 30.2524 21.5328 30.7739 21.263 31.2235C20.9933 31.6911 20.6695 32.0777 20.2919 32.3835C19.9142 32.7072 19.4646 32.95 18.9431 33.1118C18.4395 33.2737 17.8281 33.3546 17.1087 33.3546C16.8389 33.3546 16.5602 33.3366 16.2724 33.3007C16.0027 33.2827 15.7239 33.2377 15.4362 33.1658L15.706 30.3603C15.9218 30.4322 16.1286 30.4772 16.3264 30.4951C16.5422 30.5311 16.74 30.5491 16.9199 30.5491C17.2616 30.5491 17.5493 30.5041 17.7831 30.4142C18.0169 30.3423 18.2147 30.2164 18.3766 30.0366C18.5384 29.8747 18.6823 29.6679 18.8082 29.4161C18.9341 29.1643 19.069 28.8676 19.2128 28.5259L19.8603 26.8804L14.3032 13.9319Z" fill="#00CC00"/>
<path d="M39.1939 19.1113C39.1939 18.6976 39.1309 18.302 39.005 17.9243C38.8971 17.5467 38.7173 17.2139 38.4655 16.9262C38.2137 16.6385 37.89 16.4137 37.4944 16.2518C37.1167 16.072 36.6671 15.982 36.1456 15.982C35.1744 15.982 34.3472 16.2788 33.6638 16.8723C32.9984 17.4477 32.6297 18.1941 32.5578 19.1113H39.1939ZM42.431 20.568C42.431 20.7118 42.431 20.8557 42.431 20.9996C42.431 21.1435 42.422 21.2873 42.404 21.4312H32.5578C32.5937 21.8988 32.7106 22.3304 32.9084 22.7261C33.1243 23.1037 33.403 23.4364 33.7447 23.7242C34.0864 23.9939 34.4731 24.2097 34.9047 24.3716C35.3363 24.5334 35.7859 24.6144 36.2535 24.6144C37.0628 24.6144 37.7461 24.4705 38.3036 24.1828C38.8612 23.877 39.3197 23.4634 39.6794 22.9419L41.8375 24.6683C40.5606 26.3948 38.7083 27.258 36.2804 27.258C35.2733 27.258 34.3472 27.1052 33.5019 26.7994C32.6567 26.4757 31.9193 26.0261 31.2899 25.4506C30.6784 24.8751 30.1929 24.1738 29.8332 23.3465C29.4915 22.5012 29.3206 21.5481 29.3206 20.487C29.3206 19.444 29.4915 18.4998 29.8332 17.6546C30.1929 16.7913 30.6784 16.063 31.2899 15.4695C31.9013 14.858 32.6207 14.3905 33.448 14.0667C34.2932 13.725 35.2014 13.5542 36.1725 13.5542C37.0717 13.5542 37.899 13.7071 38.6543 14.0128C39.4276 14.3005 40.0931 14.7411 40.6506 15.3346C41.2081 15.9101 41.6397 16.6385 41.9454 17.5197C42.2691 18.3829 42.431 19.399 42.431 20.568Z" fill="#00CC00"/>
<path d="M92.7739 13.9321H95.8762V16.0902H95.9301C96.2898 15.3349 96.7934 14.7234 97.4408 14.2559C98.0882 13.7883 98.8435 13.5545 99.7068 13.5545C99.8327 13.5545 99.9675 13.5635 100.111 13.5815C100.255 13.5815 100.381 13.5994 100.489 13.6354V16.6028C100.273 16.5488 100.084 16.5128 99.9226 16.4949C99.7787 16.4769 99.6348 16.4679 99.491 16.4679C98.7536 16.4679 98.1601 16.6028 97.7105 16.8725C97.2609 17.1423 96.9103 17.466 96.6585 17.8437C96.4067 18.2213 96.2359 18.608 96.1459 19.0036C96.056 19.3993 96.011 19.714 96.011 19.9478V26.8806H92.7739V13.9321Z" fill="#6D6D6D"/>
<path d="M110.297 25.2351H110.216C109.892 25.8106 109.37 26.2872 108.651 26.6648C107.932 27.0245 107.113 27.2044 106.196 27.2044C105.675 27.2044 105.126 27.1324 104.551 26.9885C103.993 26.8627 103.472 26.6468 102.986 26.3411C102.518 26.0174 102.123 25.6038 101.799 25.1002C101.493 24.5787 101.34 23.9403 101.34 23.1849C101.34 22.2138 101.61 21.4405 102.15 20.865C102.707 20.2895 103.418 19.8489 104.281 19.5432C105.144 19.2374 106.097 19.0396 107.14 18.9497C108.201 18.8418 109.235 18.7878 110.243 18.7878V18.4641C110.243 17.6548 109.946 17.0614 109.352 16.6837C108.777 16.288 108.085 16.0902 107.275 16.0902C106.592 16.0902 105.935 16.2341 105.306 16.5218C104.677 16.8096 104.155 17.1603 103.741 17.5739L102.069 15.6047C102.806 14.9213 103.651 14.4087 104.605 14.067C105.576 13.7253 106.556 13.5545 107.545 13.5545C108.696 13.5545 109.64 13.7163 110.377 14.04C111.133 14.3638 111.726 14.7864 112.158 15.3079C112.59 15.8295 112.886 16.4139 113.048 17.0614C113.228 17.7088 113.318 18.3562 113.318 19.0036V26.8806H110.297V25.2351ZM110.243 20.9729H109.514C108.993 20.9729 108.444 20.9999 107.869 21.0538C107.293 21.0898 106.763 21.1887 106.277 21.3506C105.792 21.4944 105.387 21.7102 105.063 21.998C104.739 22.2677 104.578 22.6454 104.578 23.131C104.578 23.4367 104.641 23.6975 104.766 23.9133C104.91 24.1111 105.09 24.273 105.306 24.3988C105.522 24.5247 105.765 24.6147 106.034 24.6686C106.304 24.7226 106.574 24.7495 106.844 24.7495C107.959 24.7495 108.804 24.4528 109.379 23.8593C109.955 23.2658 110.243 22.4566 110.243 21.4315V20.9729Z" fill="#6D6D6D"/>
<path d="M117.143 13.9321H120.38V26.8806H117.143V13.9321ZM116.685 9.53505C116.685 9.01351 116.873 8.56391 117.251 8.18625C117.647 7.7906 118.141 7.59277 118.735 7.59277C119.328 7.59277 119.823 7.78161 120.218 8.15927C120.632 8.51895 120.839 8.97754 120.839 9.53505C120.839 10.0926 120.632 10.5601 120.218 10.9378C119.823 11.2975 119.328 11.4773 118.735 11.4773C118.141 11.4773 117.647 11.2885 117.251 10.9108C116.873 10.5152 116.685 10.0566 116.685 9.53505Z" fill="#6D6D6D"/>
<path d="M131.402 17.3851C131.114 17.0074 130.719 16.6837 130.215 16.4139C129.712 16.1262 129.163 15.9823 128.57 15.9823C128.048 15.9823 127.572 16.0902 127.14 16.306C126.708 16.5218 126.492 16.8815 126.492 17.3851C126.492 17.8886 126.726 18.2483 127.194 18.4641C127.679 18.6619 128.381 18.8688 129.298 19.0846C129.784 19.1925 130.269 19.3363 130.755 19.5162C131.258 19.696 131.708 19.9388 132.104 20.2445C132.517 20.5323 132.85 20.901 133.102 21.3506C133.353 21.7822 133.479 22.3127 133.479 22.9421C133.479 23.7334 133.326 24.4078 133.021 24.9653C132.733 25.5049 132.337 25.9455 131.834 26.2872C131.348 26.6289 130.773 26.8716 130.107 27.0155C129.46 27.1774 128.785 27.2583 128.084 27.2583C127.077 27.2583 126.097 27.0785 125.144 26.7188C124.191 26.3411 123.399 25.8106 122.77 25.1272L124.901 23.131C125.261 23.5986 125.728 23.9852 126.304 24.2909C126.879 24.5967 127.518 24.7495 128.219 24.7495C128.453 24.7495 128.687 24.7226 128.92 24.6686C129.172 24.6147 129.397 24.5337 129.595 24.4258C129.811 24.2999 129.981 24.1381 130.107 23.9403C130.233 23.7424 130.296 23.4996 130.296 23.2119C130.296 22.6724 130.044 22.2857 129.541 22.0519C129.055 21.8181 128.318 21.5843 127.329 21.3506C126.843 21.2426 126.367 21.1078 125.899 20.9459C125.449 20.7661 125.045 20.5413 124.685 20.2715C124.325 19.9838 124.038 19.6331 123.822 19.2194C123.606 18.8058 123.498 18.2933 123.498 17.6818C123.498 16.9624 123.642 16.342 123.93 15.8205C124.235 15.2989 124.631 14.8763 125.117 14.5526C125.602 14.2109 126.151 13.9591 126.762 13.7973C127.374 13.6354 128.003 13.5545 128.651 13.5545C129.586 13.5545 130.494 13.7163 131.375 14.04C132.274 14.3638 132.985 14.8583 133.506 15.5237L131.402 17.3851Z" fill="#6D6D6D"/>
<path d="M145.412 19.1115C145.412 18.6979 145.349 18.3023 145.223 17.9246C145.115 17.5469 144.935 17.2142 144.683 16.9265C144.432 16.6387 144.108 16.4139 143.712 16.2521C143.335 16.0722 142.885 15.9823 142.363 15.9823C141.392 15.9823 140.565 16.2791 139.882 16.8725C139.216 17.448 138.848 18.1944 138.776 19.1115H145.412ZM148.649 20.5682C148.649 20.7121 148.649 20.856 148.649 20.9999C148.649 21.1437 148.64 21.2876 148.622 21.4315H138.776C138.812 21.8991 138.929 22.3307 139.126 22.7263C139.342 23.104 139.621 23.4367 139.963 23.7244C140.304 23.9942 140.691 24.21 141.123 24.3719C141.554 24.5337 142.004 24.6147 142.471 24.6147C143.281 24.6147 143.964 24.4708 144.522 24.183C145.079 23.8773 145.538 23.4637 145.897 22.9421L148.055 24.6686C146.779 26.3951 144.926 27.2583 142.498 27.2583C141.491 27.2583 140.565 27.1054 139.72 26.7997C138.875 26.476 138.137 26.0264 137.508 25.4509C136.896 24.8754 136.411 24.174 136.051 23.3468C135.709 22.5015 135.539 21.5484 135.539 20.4873C135.539 19.4442 135.709 18.5001 136.051 17.6548C136.411 16.7916 136.896 16.0632 137.508 15.4698C138.119 14.8583 138.839 14.3907 139.666 14.067C140.511 13.7253 141.419 13.5545 142.39 13.5545C143.29 13.5545 144.117 13.7073 144.872 14.0131C145.646 14.3008 146.311 14.7414 146.868 15.3349C147.426 15.9104 147.858 16.6387 148.163 17.52C148.487 18.3832 148.649 19.3993 148.649 20.5682Z" fill="#6D6D6D"/>
</svg>
