<svg width="155" height="43" viewBox="0 0 155 43" fill="none" xmlns="http://www.w3.org/2000/svg">
<path fill-rule="evenodd" clip-rule="evenodd" d="M80.3826 40.0764C86.9905 36.447 91.4694 29.4217 91.4694 21.3503C91.4694 9.55887 81.9105 0 70.1191 0C69.8929 0 69.6676 0.00351616 69.4431 0.0104968L72.6399 5.1231C80.5114 6.33596 86.5386 13.1393 86.5386 21.3503C86.5386 27.6588 82.9809 33.1363 77.7625 35.8861L80.3826 40.0764Z" fill="#6D6D6D"/>
<path d="M52.1216 19.3281H63.561L66.7167 24.2589H52.1216V19.3281Z" fill="#00CC00"/>
<path fill-rule="evenodd" clip-rule="evenodd" d="M48.7688 21.3924C48.7688 11.6728 55.2636 3.47019 64.15 0.887695L66.9014 5.28802C59.3738 6.78366 53.6996 13.4254 53.6996 21.3924C53.6996 30.4607 61.0509 37.8119 70.1191 37.8119C71.0918 37.8119 72.0446 37.7274 72.9708 37.5652L75.7406 41.9949C73.9495 42.4825 72.0647 42.7427 70.1191 42.7427C58.3277 42.7427 48.7688 33.1839 48.7688 21.3924Z" fill="#00CC00"/>
<path fill-rule="evenodd" clip-rule="evenodd" d="M67.4072 19.3281L79.7853 39.1242L83.9661 36.51L73.2226 19.3281H67.4072Z" fill="#6D6D6D"/>
<path fill-rule="evenodd" clip-rule="evenodd" d="M70.4866 24.2592H74.4089C78.4392 24.2592 81.7064 20.992 81.7064 16.9616C81.7064 12.9313 78.4392 9.66406 74.4089 9.66406H61.3606L64.4437 14.5949H74.4089C75.716 14.5949 76.7756 15.6545 76.7756 16.9616C76.7756 18.2688 75.716 19.3284 74.4089 19.3284H67.4035L70.4866 24.2592Z" fill="#6D6D6D"/>
<path d="M10.2929 19.9236C10.2929 19.4924 10.2272 19.0799 10.096 18.6862C9.98351 18.2925 9.79603 17.9457 9.53355 17.6457C9.27107 17.3457 8.9336 17.1114 8.52114 16.9426C8.12742 16.7551 7.65871 16.6614 7.11501 16.6614C6.1026 16.6614 5.24017 16.9707 4.52773 17.5894C3.83404 18.1894 3.4497 18.9675 3.37471 19.9236H10.2929ZM13.6676 21.4422C13.6676 21.5922 13.6676 21.7422 13.6676 21.8922C13.6676 22.0422 13.6582 22.1922 13.6394 22.3422H3.37471C3.4122 22.8296 3.53407 23.2796 3.7403 23.692C3.96528 24.0858 4.25588 24.4326 4.6121 24.7326C4.96832 25.0138 5.37141 25.2388 5.82137 25.4075C6.27133 25.5763 6.74004 25.6606 7.2275 25.6606C8.07118 25.6606 8.78361 25.5106 9.36481 25.2107C9.94601 24.8919 10.4241 24.4607 10.7991 23.917L13.0489 25.7169C11.7177 27.5167 9.78665 28.4166 7.25562 28.4166C6.20571 28.4166 5.24017 28.2573 4.359 27.9385C3.47782 27.6011 2.70914 27.1324 2.05295 26.5324C1.4155 25.9325 0.909296 25.2013 0.534329 24.3389C0.17811 23.4577 0 22.464 0 21.3579C0 20.2705 0.17811 19.2862 0.534329 18.405C0.909296 17.5051 1.4155 16.7458 2.05295 16.1271C2.69039 15.4896 3.44033 15.0022 4.30275 14.6647C5.18393 14.3085 6.13072 14.1304 7.14313 14.1304C8.08055 14.1304 8.94298 14.2897 9.73041 14.6085C10.5366 14.9084 11.2303 15.3678 11.8115 15.9865C12.3927 16.5864 12.8426 17.3457 13.1614 18.2644C13.4988 19.1643 13.6676 20.2236 13.6676 21.4422Z" fill="#00CC00"/>
<path d="M14.9111 14.5241H18.6514L22.4198 24.3389H22.4761L25.8227 14.5241H29.338L22.9542 30.9195C22.7104 31.5382 22.448 32.0819 22.1667 32.5506C21.8855 33.0381 21.548 33.4412 21.1543 33.7599C20.7606 34.0974 20.2919 34.3505 19.7482 34.5192C19.2232 34.688 18.5858 34.7723 17.8359 34.7723C17.5546 34.7723 17.264 34.7536 16.9641 34.7161C16.6828 34.6973 16.3922 34.6505 16.0923 34.5755L16.3735 31.6507C16.5985 31.7257 16.8141 31.7726 17.0203 31.7913C17.2453 31.8288 17.4515 31.8476 17.639 31.8476C17.9952 31.8476 18.2952 31.8007 18.5389 31.707C18.7827 31.632 18.9889 31.5007 19.1576 31.3133C19.3264 31.1445 19.4763 30.9289 19.6076 30.6664C19.7388 30.404 19.8794 30.0946 20.0294 29.7384L20.7044 28.0229L14.9111 14.5241Z" fill="#00CC00"/>
<path d="M40.8597 19.9236C40.8597 19.4924 40.794 19.0799 40.6628 18.6862C40.5503 18.2925 40.3628 17.9457 40.1004 17.6457C39.8379 17.3457 39.5004 17.1114 39.0879 16.9426C38.6942 16.7551 38.2255 16.6614 37.6818 16.6614C36.6694 16.6614 35.807 16.9707 35.0945 17.5894C34.4009 18.1894 34.0165 18.9675 33.9415 19.9236H40.8597ZM44.2344 21.4422C44.2344 21.5922 44.2344 21.7422 44.2344 21.8922C44.2344 22.0422 44.225 22.1922 44.2063 22.3422H33.9415C33.979 22.8296 34.1009 23.2796 34.3071 23.692C34.5321 24.0858 34.8227 24.4326 35.1789 24.7326C35.5351 25.0138 35.9382 25.2388 36.3882 25.4075C36.8381 25.5763 37.3068 25.6606 37.7943 25.6606C38.638 25.6606 39.3504 25.5106 39.9316 25.2107C40.5128 24.8919 40.9909 24.4607 41.3659 23.917L43.6157 25.7169C42.2845 27.5167 40.3535 28.4166 37.8224 28.4166C36.7725 28.4166 35.807 28.2573 34.9258 27.9385C34.0446 27.6011 33.276 27.1324 32.6198 26.5324C31.9823 25.9325 31.4761 25.2013 31.1011 24.3389C30.7449 23.4577 30.5668 22.464 30.5668 21.3579C30.5668 20.2705 30.7449 19.2862 31.1011 18.405C31.4761 17.5051 31.9823 16.7458 32.6198 16.1271C33.2572 15.4896 34.0071 15.0022 34.8696 14.6647C35.7507 14.3085 36.6975 14.1304 37.7099 14.1304C38.6474 14.1304 39.5098 14.2897 40.2972 14.6085C41.1034 14.9084 41.7971 15.3678 42.3783 15.9865C42.9595 16.5864 43.4094 17.3457 43.7282 18.2644C44.0656 19.1643 44.2344 20.2236 44.2344 21.4422Z" fill="#00CC00"/>
<path d="M96.7173 14.5238H99.9514V16.7736H100.008C100.383 15.9862 100.908 15.3488 101.582 14.8613C102.257 14.3739 103.045 14.1301 103.945 14.1301C104.076 14.1301 104.217 14.1395 104.367 14.1582C104.517 14.1582 104.648 14.177 104.76 14.2145V17.308C104.535 17.2517 104.339 17.2142 104.17 17.1955C104.02 17.1767 103.87 17.1674 103.72 17.1674C102.951 17.1674 102.332 17.308 101.864 17.5892C101.395 17.8704 101.029 18.2079 100.767 18.6016C100.504 18.9953 100.326 19.3984 100.233 19.8109C100.139 20.2233 100.092 20.5514 100.092 20.7952V28.0227H96.7173V14.5238Z" fill="#6D6D6D"/>
<path d="M114.985 26.3072H114.9C114.563 26.9071 114.019 27.404 113.269 27.7977C112.519 28.1727 111.666 28.3601 110.71 28.3601C110.166 28.3601 109.594 28.2851 108.995 28.1352C108.413 28.0039 107.87 27.7789 107.363 27.4602C106.876 27.1227 106.464 26.6915 106.126 26.1666C105.807 25.6229 105.648 24.9573 105.648 24.1699C105.648 23.1575 105.929 22.3513 106.492 21.7513C107.073 21.1514 107.813 20.6921 108.713 20.3733C109.613 20.0546 110.607 19.8484 111.694 19.7546C112.8 19.6421 113.878 19.5859 114.928 19.5859V19.2484C114.928 18.4048 114.619 17.7861 114 17.3923C113.4 16.9799 112.679 16.7736 111.835 16.7736C111.122 16.7736 110.438 16.9236 109.782 17.2236C109.126 17.5236 108.582 17.8892 108.151 18.3204L106.407 16.2674C107.176 15.555 108.057 15.0207 109.051 14.6645C110.063 14.3082 111.085 14.1301 112.116 14.1301C113.316 14.1301 114.3 14.2989 115.069 14.6363C115.856 14.9738 116.475 15.4144 116.925 15.9581C117.375 16.5018 117.684 17.1111 117.853 17.7861C118.041 18.461 118.134 19.1359 118.134 19.8109V28.0227H114.985V26.3072ZM114.928 21.8638H114.169C113.625 21.8638 113.054 21.892 112.454 21.9482C111.854 21.9857 111.301 22.0888 110.794 22.2575C110.288 22.4075 109.866 22.6325 109.529 22.9325C109.191 23.2137 109.023 23.6074 109.023 24.1136C109.023 24.4324 109.088 24.7042 109.22 24.9292C109.37 25.1354 109.557 25.3042 109.782 25.4354C110.007 25.5666 110.26 25.6604 110.541 25.7166C110.823 25.7729 111.104 25.801 111.385 25.801C112.547 25.801 113.429 25.4916 114.028 24.8729C114.628 24.2542 114.928 23.4106 114.928 22.3419V21.8638Z" fill="#6D6D6D"/>
<path d="M122.122 14.5238H125.497V28.0227H122.122V14.5238ZM121.644 9.93986C121.644 9.39616 121.841 8.92745 122.235 8.53374C122.647 8.12127 123.163 7.91504 123.782 7.91504C124.4 7.91504 124.916 8.1119 125.328 8.50561C125.759 8.88058 125.975 9.35866 125.975 9.93986C125.975 10.5211 125.759 11.0085 125.328 11.4022C124.916 11.7772 124.4 11.9647 123.782 11.9647C123.163 11.9647 122.647 11.7678 122.235 11.3741C121.841 10.9617 121.644 10.4836 121.644 9.93986Z" fill="#6D6D6D"/>
<path d="M136.987 18.1235C136.687 17.7298 136.275 17.3923 135.75 17.1111C135.225 16.8111 134.653 16.6612 134.034 16.6612C133.491 16.6612 132.994 16.7736 132.544 16.9986C132.094 17.2236 131.869 17.5986 131.869 18.1235C131.869 18.6485 132.113 19.0235 132.6 19.2484C133.106 19.4547 133.838 19.6703 134.794 19.8953C135.3 20.0077 135.806 20.1577 136.312 20.3452C136.837 20.5327 137.306 20.7858 137.718 21.1045C138.15 21.4045 138.497 21.7888 138.759 22.2575C139.021 22.7075 139.153 23.2606 139.153 23.9168C139.153 24.7417 138.993 25.4448 138.675 26.026C138.375 26.5884 137.962 27.0478 137.437 27.404C136.931 27.7602 136.331 28.0133 135.637 28.1633C134.962 28.332 134.259 28.4164 133.528 28.4164C132.478 28.4164 131.456 28.2289 130.463 27.8539C129.469 27.4602 128.644 26.9071 127.988 26.1947L130.21 24.1136C130.585 24.6011 131.072 25.0042 131.672 25.3229C132.272 25.6416 132.938 25.801 133.669 25.801C133.913 25.801 134.156 25.7729 134.4 25.7166C134.662 25.6604 134.897 25.576 135.103 25.4635C135.328 25.3323 135.506 25.1635 135.637 24.9573C135.769 24.7511 135.834 24.498 135.834 24.198C135.834 23.6356 135.572 23.2325 135.047 22.9887C134.541 22.745 133.772 22.5013 132.741 22.2575C132.235 22.1451 131.738 22.0044 131.25 21.8357C130.782 21.6482 130.36 21.4139 129.985 21.1326C129.61 20.8327 129.31 20.4671 129.085 20.0359C128.86 19.6047 128.747 19.0703 128.747 18.4329C128.747 17.6829 128.897 17.0361 129.197 16.4924C129.516 15.9487 129.928 15.5081 130.435 15.1707C130.941 14.8144 131.513 14.552 132.15 14.3832C132.788 14.2145 133.444 14.1301 134.119 14.1301C135.094 14.1301 136.04 14.2989 136.959 14.6363C137.897 14.9738 138.637 15.4894 139.181 16.1831L136.987 18.1235Z" fill="#6D6D6D"/>
<path d="M151.592 19.9234C151.592 19.4922 151.527 19.0797 151.395 18.686C151.283 18.2923 151.095 17.9454 150.833 17.6454C150.571 17.3455 150.233 17.1111 149.821 16.9424C149.427 16.7549 148.958 16.6612 148.414 16.6612C147.402 16.6612 146.54 16.9705 145.827 17.5892C145.134 18.1891 144.749 18.9672 144.674 19.9234H151.592ZM154.967 21.442C154.967 21.592 154.967 21.742 154.967 21.892C154.967 22.0419 154.958 22.1919 154.939 22.3419H144.674C144.712 22.8294 144.834 23.2793 145.04 23.6918C145.265 24.0855 145.555 24.4324 145.912 24.7323C146.268 25.0136 146.671 25.2385 147.121 25.4073C147.571 25.576 148.04 25.6604 148.527 25.6604C149.371 25.6604 150.083 25.5104 150.664 25.2104C151.245 24.8917 151.724 24.4605 152.099 23.9168L154.348 25.7166C153.017 27.5165 151.086 28.4164 148.555 28.4164C147.505 28.4164 146.54 28.257 145.658 27.9383C144.777 27.6008 144.009 27.1321 143.352 26.5322C142.715 25.9322 142.209 25.201 141.834 24.3386C141.478 23.4574 141.299 22.4638 141.299 21.3576C141.299 20.2702 141.478 19.2859 141.834 18.4048C142.209 17.5048 142.715 16.7455 143.352 16.1268C143.99 15.4894 144.74 15.0019 145.602 14.6645C146.483 14.3082 147.43 14.1301 148.443 14.1301C149.38 14.1301 150.242 14.2895 151.03 14.6082C151.836 14.9082 152.53 15.3675 153.111 15.9862C153.692 16.5862 154.142 17.3455 154.461 18.2641C154.798 19.1641 154.967 20.2233 154.967 21.442Z" fill="#6D6D6D"/>
</svg>
