<svg width="33" height="32" viewBox="0 0 33 32" fill="none" xmlns="http://www.w3.org/2000/svg">
<path fill-rule="evenodd" clip-rule="evenodd" d="M24.485 30.0039C29.437 27.2867 32.7934 22.0271 32.7934 15.9843C32.7934 7.15642 25.63 0 16.7934 0C16.6239 0 16.4551 0.00263244 16.2869 0.00785862L18.6826 3.8355C24.5815 4.74353 29.0983 9.83696 29.0983 15.9843C29.0983 20.7073 26.4321 24.8081 22.5214 26.8668L24.485 30.0039Z" fill="#6D6D6D"/>
<path d="M3.30615 14.4707H11.8789L14.2438 18.1622H3.30615V14.4707Z" fill="#00CC00"/>
<path fill-rule="evenodd" clip-rule="evenodd" d="M0.793457 16.0158C0.793457 8.73903 5.66068 2.59798 12.3202 0.664551L14.3821 3.95893C8.74089 5.07867 4.48861 10.0511 4.48861 16.0158C4.48861 22.8049 9.99768 28.3085 16.7935 28.3085C17.5224 28.3085 18.2364 28.2452 18.9305 28.1238L21.0062 31.4402C19.664 31.8052 18.2515 32.0001 16.7935 32.0001C7.9569 32.0001 0.793457 24.8437 0.793457 16.0158Z" fill="#00CC00"/>
<path fill-rule="evenodd" clip-rule="evenodd" d="M14.7612 14.4707L24.0374 29.2914L27.1705 27.3342L19.1193 14.4707H14.7612Z" fill="#6D6D6D"/>
<path fill-rule="evenodd" clip-rule="evenodd" d="M17.0688 18.1623H20.0082C23.0286 18.1623 25.477 15.7162 25.477 12.6988C25.477 9.68143 23.0286 7.23535 20.0082 7.23535H10.2297L12.5402 10.9269H20.0082C20.9878 10.9269 21.7819 11.7202 21.7819 12.6988C21.7819 13.6774 20.9878 14.4707 20.0082 14.4707H14.7583L17.0688 18.1623Z" fill="#6D6D6D"/>
</svg>
