<svg width="156" height="43" viewBox="0 0 156 43" fill="none" xmlns="http://www.w3.org/2000/svg">
<path fill-rule="evenodd" clip-rule="evenodd" d="M80.524 40.3337C87.1319 36.7043 91.6107 29.679 91.6107 21.6076C91.6107 9.81619 82.0519 0.257324 70.2604 0.257324C70.0343 0.257324 69.8089 0.26084 69.5845 0.267821L72.7813 5.38043C80.6528 6.59328 86.6799 13.3966 86.6799 21.6076C86.6799 27.9161 83.1223 33.3937 77.9039 36.1434L80.524 40.3337Z" fill="#00CC00"/>
<path d="M52.2634 19.5854H63.7029L66.8586 24.5162H52.2634V19.5854Z" fill="#00CC00"/>
<path fill-rule="evenodd" clip-rule="evenodd" d="M48.9102 21.6497C48.9102 11.9301 55.405 3.72751 64.2914 1.14502L67.0428 5.54534C59.5152 7.04098 53.8409 13.6827 53.8409 21.6497C53.8409 30.718 61.1922 38.0693 70.2605 38.0693C71.2331 38.0693 72.186 37.9847 73.1122 37.8225L75.882 42.2522C74.0909 42.7398 72.2061 43 70.2605 43C58.469 43 48.9102 33.4412 48.9102 21.6497Z" fill="#00CC00"/>
<path fill-rule="evenodd" clip-rule="evenodd" d="M67.5486 19.5854L79.9267 39.3815L84.1074 36.7673L73.3639 19.5854H67.5486Z" fill="#00CC00"/>
<path fill-rule="evenodd" clip-rule="evenodd" d="M70.628 24.517H74.5505C78.5808 24.517 81.8481 21.2498 81.8481 17.2194C81.8481 13.1891 78.5808 9.92188 74.5505 9.92188H61.502L64.5851 14.8527H74.5505C75.8576 14.8527 76.9173 15.9123 76.9173 17.2194C76.9173 18.5266 75.8576 19.5862 74.5505 19.5862H67.5449L70.628 24.517Z" fill="#00CC00"/>
<path d="M10.4345 20.1809C10.4345 19.7497 10.3688 19.3373 10.2376 18.9436C10.1251 18.5498 9.93763 18.203 9.67515 17.903C9.41267 17.603 9.0752 17.3687 8.66274 17.2C8.26902 17.0125 7.80031 16.9187 7.25661 16.9187C6.2442 16.9187 5.38177 17.2281 4.66933 17.8468C3.97564 18.4467 3.5913 19.2248 3.51631 20.1809H10.4345ZM13.8092 21.6996C13.8092 21.8495 13.8092 21.9995 13.8092 22.1495C13.8092 22.2995 13.7998 22.4495 13.781 22.5995H3.51631C3.55381 23.0869 3.67567 23.5369 3.8819 23.9494C4.10688 24.3431 4.39748 24.6899 4.7537 24.9899C5.10992 25.2711 5.51301 25.4961 5.96297 25.6648C6.41293 25.8336 6.88164 25.9179 7.3691 25.9179C8.21278 25.9179 8.92522 25.768 9.50641 25.468C10.0876 25.1493 10.5657 24.718 10.9407 24.1743L13.1905 25.9742C11.8593 27.774 9.92825 28.674 7.39722 28.674C6.34731 28.674 5.38177 28.5146 4.5006 28.1959C3.61943 27.8584 2.85074 27.3897 2.19455 26.7897C1.5571 26.1898 1.0509 25.4586 0.67593 24.5962C0.319711 23.715 0.141602 22.7213 0.141602 21.6152C0.141602 20.5278 0.319711 19.5435 0.67593 18.6623C1.0509 17.7624 1.5571 17.0031 2.19455 16.3844C2.83199 15.747 3.58193 15.2595 4.44435 14.922C5.32553 14.5658 6.27232 14.3877 7.28473 14.3877C8.22215 14.3877 9.08458 14.5471 9.87201 14.8658C10.6782 15.1658 11.3719 15.6251 11.9531 16.2438C12.5343 16.8437 12.9842 17.603 13.303 18.5217C13.6404 19.4216 13.8092 20.4809 13.8092 21.6996Z" fill="#00CC00"/>
<path d="M15.0527 14.7814H18.793L22.5614 24.5962H22.6177L25.9643 14.7814H29.4796L23.0958 31.1769C22.852 31.7956 22.5896 32.3393 22.3083 32.808C22.0271 33.2954 21.6896 33.6985 21.2959 34.0172C20.9022 34.3547 20.4335 34.6078 19.8898 34.7766C19.3648 34.9453 18.7274 35.0297 17.9775 35.0297C17.6962 35.0297 17.4056 35.0109 17.1057 34.9734C16.8244 34.9547 16.5338 34.9078 16.2339 34.8328L16.5151 31.9081C16.7401 31.983 16.9557 32.0299 17.1619 32.0487C17.3869 32.0862 17.5931 32.1049 17.7806 32.1049C18.1368 32.1049 18.4368 32.058 18.6805 31.9643C18.9243 31.8893 19.1305 31.7581 19.2992 31.5706C19.468 31.4018 19.6179 31.1862 19.7492 30.9238C19.8804 30.6613 20.021 30.3519 20.171 29.9957L20.846 28.2802L15.0527 14.7814Z" fill="#00CC00"/>
<path d="M41.0013 20.1809C41.0013 19.7497 40.9356 19.3373 40.8044 18.9436C40.6919 18.5498 40.5044 18.203 40.242 17.903C39.9795 17.603 39.642 17.3687 39.2295 17.2C38.8358 17.0125 38.3671 16.9187 37.8234 16.9187C36.811 16.9187 35.9486 17.2281 35.2361 17.8468C34.5425 18.4467 34.1581 19.2248 34.0831 20.1809H41.0013ZM44.376 21.6996C44.376 21.8495 44.376 21.9995 44.376 22.1495C44.376 22.2995 44.3666 22.4495 44.3479 22.5995H34.0831C34.1206 23.0869 34.2425 23.5369 34.4487 23.9494C34.6737 24.3431 34.9643 24.6899 35.3205 24.9899C35.6767 25.2711 36.0798 25.4961 36.5298 25.6648C36.9797 25.8336 37.4485 25.9179 37.9359 25.9179C38.7796 25.9179 39.492 25.768 40.0732 25.468C40.6544 25.1493 41.1325 24.718 41.5075 24.1743L43.7573 25.9742C42.4261 27.774 40.4951 28.674 37.964 28.674C36.9141 28.674 35.9486 28.5146 35.0674 28.1959C34.1862 27.8584 33.4176 27.3897 32.7614 26.7897C32.1239 26.1898 31.6177 25.4586 31.2427 24.5962C30.8865 23.715 30.7084 22.7213 30.7084 21.6152C30.7084 20.5278 30.8865 19.5435 31.2427 18.6623C31.6177 17.7624 32.1239 17.0031 32.7614 16.3844C33.3988 15.747 34.1487 15.2595 35.0112 14.922C35.8923 14.5658 36.8391 14.3877 37.8515 14.3877C38.789 14.3877 39.6514 14.5471 40.4388 14.8658C41.245 15.1658 41.9387 15.6251 42.5199 16.2438C43.1011 16.8437 43.551 17.603 43.8698 18.5217C44.2072 19.4216 44.376 20.4809 44.376 21.6996Z" fill="#00CC00"/>
<path d="M96.8589 14.7817H100.093V17.0315H100.149C100.524 16.244 101.049 15.6066 101.724 15.1191C102.399 14.6317 103.186 14.3879 104.086 14.3879C104.218 14.3879 104.358 14.3973 104.508 14.4161C104.658 14.4161 104.789 14.4348 104.902 14.4723V17.5658C104.677 17.5095 104.48 17.472 104.311 17.4533C104.161 17.4345 104.011 17.4252 103.861 17.4252C103.093 17.4252 102.474 17.5658 102.005 17.847C101.537 18.1282 101.171 18.4657 100.909 18.8594C100.646 19.2531 100.468 19.6562 100.374 20.0687C100.28 20.4812 100.234 20.8093 100.234 21.053V28.2805H96.8589V14.7817Z" fill="#00CC00"/>
<path d="M115.126 26.565H115.042C114.704 27.165 114.161 27.6618 113.411 28.0555C112.661 28.4305 111.808 28.618 110.852 28.618C110.308 28.618 109.736 28.543 109.136 28.393C108.555 28.2617 108.011 28.0368 107.505 27.718C107.018 27.3806 106.605 26.9493 106.268 26.4244C105.949 25.8807 105.79 25.2151 105.79 24.4277C105.79 23.4153 106.071 22.6091 106.633 22.0092C107.214 21.4092 107.955 20.9499 108.855 20.6311C109.755 20.3124 110.749 20.1062 111.836 20.0125C112.942 19.9 114.02 19.8437 115.07 19.8437V19.5062C115.07 18.6626 114.761 18.0439 114.142 17.6502C113.542 17.2377 112.82 17.0315 111.977 17.0315C111.264 17.0315 110.58 17.1814 109.924 17.4814C109.267 17.7814 108.724 18.147 108.292 18.5782L106.549 16.5253C107.318 15.8128 108.199 15.2785 109.192 14.9223C110.205 14.566 111.227 14.3879 112.258 14.3879C113.458 14.3879 114.442 14.5567 115.211 14.8941C115.998 15.2316 116.617 15.6722 117.067 16.2159C117.517 16.7596 117.826 17.3689 117.995 18.0439C118.182 18.7188 118.276 19.3938 118.276 20.0687V28.2805H115.126V26.565ZM115.07 22.1216H114.311C113.767 22.1216 113.195 22.1498 112.595 22.206C111.995 22.2435 111.442 22.3466 110.936 22.5154C110.43 22.6653 110.008 22.8903 109.67 23.1903C109.333 23.4715 109.164 23.8652 109.164 24.3714C109.164 24.6902 109.23 24.962 109.361 25.187C109.511 25.3932 109.699 25.562 109.924 25.6932C110.149 25.8244 110.402 25.9182 110.683 25.9744C110.964 26.0307 111.245 26.0588 111.527 26.0588C112.689 26.0588 113.57 25.7495 114.17 25.1308C114.77 24.5121 115.07 23.6684 115.07 22.5997V22.1216Z" fill="#00CC00"/>
<path d="M122.264 14.7817H125.639V28.2805H122.264V14.7817ZM121.786 10.1977C121.786 9.65397 121.983 9.18526 122.376 8.79155C122.789 8.37908 123.304 8.17285 123.923 8.17285C124.542 8.17285 125.057 8.36971 125.47 8.76343C125.901 9.13839 126.117 9.61648 126.117 10.1977C126.117 10.7789 125.901 11.2663 125.47 11.66C125.057 12.035 124.542 12.2225 123.923 12.2225C123.304 12.2225 122.789 12.0256 122.376 11.6319C121.983 11.2195 121.786 10.7414 121.786 10.1977Z" fill="#00CC00"/>
<path d="M137.129 18.3813C136.829 17.9876 136.416 17.6502 135.891 17.3689C135.367 17.069 134.795 16.919 134.176 16.919C133.632 16.919 133.135 17.0315 132.685 17.2564C132.236 17.4814 132.011 17.8564 132.011 18.3813C132.011 18.9063 132.254 19.2813 132.742 19.5062C133.248 19.7125 133.979 19.9281 134.935 20.1531C135.442 20.2656 135.948 20.4155 136.454 20.603C136.979 20.7905 137.448 21.0436 137.86 21.3623C138.291 21.6623 138.638 22.0466 138.901 22.5154C139.163 22.9653 139.294 23.5184 139.294 24.1746C139.294 24.9995 139.135 25.7026 138.816 26.2838C138.516 26.8462 138.104 27.3056 137.579 27.6618C137.073 28.018 136.473 28.2711 135.779 28.4211C135.104 28.5898 134.401 28.6742 133.67 28.6742C132.62 28.6742 131.598 28.4867 130.604 28.1117C129.611 27.718 128.786 27.165 128.13 26.4525L130.351 24.3714C130.726 24.8589 131.214 25.262 131.814 25.5807C132.414 25.8994 133.079 26.0588 133.81 26.0588C134.054 26.0588 134.298 26.0307 134.542 25.9744C134.804 25.9182 135.038 25.8338 135.245 25.7213C135.47 25.5901 135.648 25.4214 135.779 25.2151C135.91 25.0089 135.976 24.7558 135.976 24.4558C135.976 23.8934 135.713 23.4903 135.188 23.2465C134.682 23.0028 133.914 22.7591 132.882 22.5154C132.376 22.4029 131.879 22.2623 131.392 22.0935C130.923 21.906 130.501 21.6717 130.126 21.3905C129.751 21.0905 129.451 20.7249 129.226 20.2937C129.001 19.8625 128.889 19.3281 128.889 18.6907C128.889 17.9408 129.039 17.2939 129.339 16.7502C129.658 16.2065 130.07 15.7659 130.576 15.4285C131.083 15.0723 131.654 14.8098 132.292 14.641C132.929 14.4723 133.585 14.3879 134.26 14.3879C135.235 14.3879 136.182 14.5567 137.101 14.8941C138.038 15.2316 138.779 15.7472 139.322 16.4409L137.129 18.3813Z" fill="#00CC00"/>
<path d="M151.734 20.1812C151.734 19.75 151.668 19.3375 151.537 18.9438C151.425 18.5501 151.237 18.2032 150.975 17.9033C150.712 17.6033 150.375 17.3689 149.962 17.2002C149.568 17.0127 149.1 16.919 148.556 16.919C147.544 16.919 146.681 17.2283 145.969 17.847C145.275 18.447 144.891 19.225 144.816 20.1812H151.734ZM155.109 21.6998C155.109 21.8498 155.109 21.9998 155.109 22.1498C155.109 22.2998 155.099 22.4497 155.081 22.5997H144.816C144.853 23.0872 144.975 23.5371 145.181 23.9496C145.406 24.3433 145.697 24.6902 146.053 24.9901C146.409 25.2714 146.812 25.4964 147.262 25.6651C147.712 25.8338 148.181 25.9182 148.669 25.9182C149.512 25.9182 150.225 25.7682 150.806 25.4682C151.387 25.1495 151.865 24.7183 152.24 24.1746L154.49 25.9744C153.159 27.7743 151.228 28.6742 148.697 28.6742C147.647 28.6742 146.681 28.5148 145.8 28.1961C144.919 27.8586 144.15 27.3899 143.494 26.79C142.857 26.19 142.35 25.4589 141.975 24.5964C141.619 23.7153 141.441 22.7216 141.441 21.6154C141.441 20.528 141.619 19.5437 141.975 18.6626C142.35 17.7626 142.857 17.0033 143.494 16.3846C144.131 15.7472 144.881 15.2597 145.744 14.9223C146.625 14.566 147.572 14.3879 148.584 14.3879C149.522 14.3879 150.384 14.5473 151.171 14.866C151.978 15.166 152.671 15.6253 153.253 16.244C153.834 16.844 154.284 17.6033 154.602 18.522C154.94 19.4219 155.109 20.4812 155.109 21.6998Z" fill="#00CC00"/>
</svg>
